<svg xmlns="http://www.w3.org/2000/svg" xmlns:xlink="http://www.w3.org/1999/xlink" viewBox="0 0 800 800"><defs><style>.cls-1{fill:#ff5b3e;}.cls-2{opacity:0.2;fill:url(#radial-gradient);}.cls-3{fill:#5b1717;opacity:0.31;}.cls-4{fill:#e8d9c4;}</style><radialGradient id="radial-gradient" cx="400" cy="400" r="400" gradientUnits="userSpaceOnUse"><stop offset="0" stop-color="#fff"/><stop offset="0.33" stop-color="#fff" stop-opacity="0.99"/><stop offset="0.46" stop-color="#fff" stop-opacity="0.96"/><stop offset="0.56" stop-color="#fff" stop-opacity="0.92"/><stop offset="0.65" stop-color="#fff" stop-opacity="0.85"/><stop offset="0.72" stop-color="#fff" stop-opacity="0.76"/><stop offset="0.79" stop-color="#fff" stop-opacity="0.64"/><stop offset="0.85" stop-color="#fff" stop-opacity="0.51"/><stop offset="0.9" stop-color="#fff" stop-opacity="0.36"/><stop offset="0.95" stop-color="#fff" stop-opacity="0.19"/><stop offset="1" stop-color="#fff" stop-opacity="0"/></radialGradient></defs><title>final-icon-design</title><g id="bg"><rect class="cls-1" width="800" height="800" rx="154" ry="154"/></g><g id="gradient_bg" data-name="gradient bg"><circle class="cls-2" cx="400" cy="400" r="400"/></g><g id="final_idea" data-name="final idea"><g id="shadows"><path id="inside_p" data-name="inside p" class="cls-3" d="M366,118.55V55H351V689h15V524.23c112.92-.07,204.44-90.86,204.44-202.84S478.92,118.63,366,118.55Zm3,374.68V452c72.61,0,131.69-59.07,131.69-131.69S441.61,188.6,369,188.6V147.34c95.36,0,173,77.58,173,172.94S464.36,493.23,369,493.23Z" transform="translate(0 0)"/><polygon id="left" class="cls-3" points="279 118.24 0 349.87 0 650.97 279 743.56 279 118.24"/></g><g id="P"><polygon id="stem" class="cls-4" points="351 55.42 351 118.75 351 689.45 278 743.05 278 689.45 278 118.75 351 55.42"/><path id="smaller_c" data-name="smaller c" class="cls-4" d="M369,493.23V452c72.61,0,131.69-59.07,131.69-131.69S441.61,188.6,369,188.6V147.34c95.36,0,173,77.58,173,172.94S464.36,493.23,369,493.23Z" transform="translate(0 0)"/><path id="larger_p" data-name="larger p" class="cls-4" d="M366,55v63.56c111.8,0,202.76,91,202.76,202.85S477.8,524.22,366,524.22V689h27V586.42c134.2-13.58,239.29-127.27,239.29-265C632.29,174.47,512.83,55,366,55Z" transform="translate(0 0)"/></g></g></svg>